<svg width="305" height="37" viewBox="0 0 305 37" fill="none" xmlns="http://www.w3.org/2000/svg">
<path d="M23.096 2.304V25.248C23.096 28.8 22.088 31.536 20.072 33.456C18.088 35.376 15.4 36.336 12.008 36.336C8.456 36.336 5.608 35.328 3.464 33.312C1.32 31.296 0.248 28.432 0.248 24.72H8.408C8.408 26.128 8.696 27.2 9.272 27.936C9.848 28.64 10.68 28.992 11.768 28.992C12.76 28.992 13.528 28.672 14.072 28.032C14.616 27.392 14.888 26.464 14.888 25.248V2.304H23.096ZM41.918 36.384C39.294 36.384 36.926 35.824 34.814 34.704C32.734 33.584 31.086 31.984 29.87 29.904C28.686 27.824 28.094 25.392 28.094 22.608C28.094 19.856 28.702 17.44 29.918 15.36C31.134 13.248 32.798 11.632 34.91 10.512C37.022 9.392 39.39 8.832 42.014 8.832C44.638 8.832 47.006 9.392 49.118 10.512C51.23 11.632 52.894 13.248 54.11 15.36C55.326 17.44 55.934 19.856 55.934 22.608C55.934 25.36 55.31 27.792 54.062 29.904C52.846 31.984 51.166 33.584 49.022 34.704C46.91 35.824 44.542 36.384 41.918 36.384ZM41.918 29.28C43.486 29.28 44.814 28.704 45.902 27.552C47.022 26.4 47.582 24.752 47.582 22.608C47.582 20.464 47.038 18.816 45.95 17.664C44.894 16.512 43.582 15.936 42.014 15.936C40.414 15.936 39.086 16.512 38.03 17.664C36.974 18.784 36.446 20.432 36.446 22.608C36.446 24.752 36.958 26.4 37.982 27.552C39.038 28.704 40.35 29.28 41.918 29.28ZM68.4965 13.68C69.4565 12.208 70.6565 11.056 72.0965 10.224C73.5365 9.36 75.1365 8.928 76.8965 8.928V17.616H74.6405C72.5925 17.616 71.0565 18.064 70.0325 18.96C69.0085 19.824 68.4965 21.36 68.4965 23.568V36H60.2885V9.216H68.4965V13.68ZM79.1878 22.56C79.1878 19.808 79.6998 17.392 80.7238 15.312C81.7798 13.232 83.2038 11.632 84.9958 10.512C86.7878 9.392 88.7878 8.832 90.9958 8.832C92.7558 8.832 94.3558 9.2 95.7958 9.936C97.2678 10.672 98.4198 11.664 99.2518 12.912V0.48H107.46V36H99.2518V32.16C98.4838 33.44 97.3798 34.464 95.9398 35.232C94.5318 36 92.8838 36.384 90.9958 36.384C88.7878 36.384 86.7878 35.824 84.9958 34.704C83.2038 33.552 81.7798 31.936 80.7238 29.856C79.6998 27.744 79.1878 25.312 79.1878 22.56ZM99.2518 22.608C99.2518 20.56 98.6758 18.944 97.5238 17.76C96.4038 16.576 95.0278 15.984 93.3958 15.984C91.7638 15.984 90.3718 16.576 89.2198 17.76C88.0998 18.912 87.5398 20.512 87.5398 22.56C87.5398 24.608 88.0998 26.24 89.2198 27.456C90.3718 28.64 91.7638 29.232 93.3958 29.232C95.0278 29.232 96.4038 28.64 97.5238 27.456C98.6758 26.272 99.2518 24.656 99.2518 22.608ZM111.766 22.56C111.766 19.808 112.278 17.392 113.302 15.312C114.358 13.232 115.782 11.632 117.574 10.512C119.366 9.392 121.366 8.832 123.574 8.832C125.462 8.832 127.11 9.216 128.518 9.984C129.958 10.752 131.062 11.76 131.83 13.008V9.216H140.038V36H131.83V32.208C131.03 33.456 129.91 34.464 128.47 35.232C127.062 36 125.414 36.384 123.526 36.384C121.35 36.384 119.366 35.824 117.574 34.704C115.782 33.552 114.358 31.936 113.302 29.856C112.278 27.744 111.766 25.312 111.766 22.56ZM131.83 22.608C131.83 20.56 131.254 18.944 130.102 17.76C128.982 16.576 127.606 15.984 125.974 15.984C124.342 15.984 122.95 16.576 121.798 17.76C120.678 18.912 120.118 20.512 120.118 22.56C120.118 24.608 120.678 26.24 121.798 27.456C122.95 28.64 124.342 29.232 125.974 29.232C127.606 29.232 128.982 28.64 130.102 27.456C131.254 26.272 131.83 24.656 131.83 22.608ZM162.296 8.928C165.432 8.928 167.928 9.952 169.784 12C171.672 14.016 172.616 16.8 172.616 20.352V36H164.456V21.456C164.456 19.664 163.992 18.272 163.064 17.28C162.136 16.288 160.888 15.792 159.32 15.792C157.752 15.792 156.504 16.288 155.576 17.28C154.648 18.272 154.184 19.664 154.184 21.456V36H145.976V9.216H154.184V12.768C155.016 11.584 156.136 10.656 157.544 9.984C158.952 9.28 160.536 8.928 162.296 8.928ZM209.468 30.048H196.892L194.876 36H186.284L198.476 2.304H207.98L220.172 36H211.484L209.468 30.048ZM207.356 23.712L203.18 11.376L199.052 23.712H207.356ZM232.09 0.48V36H223.882V0.48H232.09ZM263.286 22.176C263.286 22.944 263.239 23.744 263.143 24.576H244.567C244.695 26.24 245.223 27.52 246.151 28.416C247.111 29.28 248.279 29.712 249.655 29.712C251.703 29.712 253.127 28.848 253.927 27.12H262.663C262.215 28.88 261.399 30.464 260.215 31.872C259.063 33.28 257.607 34.384 255.847 35.184C254.087 35.984 252.119 36.384 249.943 36.384C247.319 36.384 244.983 35.824 242.935 34.704C240.887 33.584 239.287 31.984 238.135 29.904C236.983 27.824 236.407 25.392 236.407 22.608C236.407 19.824 236.967 17.392 238.087 15.312C239.239 13.232 240.839 11.632 242.887 10.512C244.935 9.392 247.287 8.832 249.943 8.832C252.535 8.832 254.839 9.376 256.855 10.464C258.871 11.552 260.439 13.104 261.559 15.12C262.711 17.136 263.286 19.488 263.286 22.176ZM254.887 20.016C254.887 18.608 254.407 17.488 253.447 16.656C252.487 15.824 251.287 15.408 249.847 15.408C248.471 15.408 247.303 15.808 246.343 16.608C245.415 17.408 244.839 18.544 244.615 20.016H254.887ZM283.457 36L278.321 28.56L274.001 36H265.121L273.953 22.32L264.881 9.216H274.097L279.233 16.608L283.553 9.216H292.433L283.457 22.704L292.673 36H283.457Z" fill="black"/>
<path d="M299.675 36.384C298.235 36.384 297.051 35.968 296.123 35.136C295.227 34.272 294.779 33.216 294.779 31.968C294.779 30.688 295.227 29.616 296.123 28.752C297.051 27.888 298.235 27.456 299.675 27.456C301.083 27.456 302.235 27.888 303.131 28.752C304.059 29.616 304.523 30.688 304.523 31.968C304.523 33.216 304.059 34.272 303.131 35.136C302.235 35.968 301.083 36.384 299.675 36.384Z" fill="#082CE9"/>
</svg>
